<?xml version="1.0" standalone="no"?>
<!DOCTYPE svg PUBLIC "-//W3C//DTD SVG 20010904//EN" "http://www.w3.org/TR/2001/REC-SVG-20010904/DTD/svg10.dtd">
<!-- Created using Krita: https://krita.org -->
<svg xmlns="http://www.w3.org/2000/svg"
    xmlns:xlink="http://www.w3.org/1999/xlink"
    xmlns:krita="http://krita.org/namespaces/svg/krita"
    xmlns:sodipodi="http://sodipodi.sourceforge.net/DTD/sodipodi-0.dtd"
    width="852.75pt"
    height="1043.25pt"
    viewBox="0 0 852.75 1043.25">
<defs/>
<path id="shape0" transform="translate(0.664556761274525, 0.264164997510989)" fill="#000000" fill-rule="evenodd" d="M233.406 263.624C228.544 308.082 214.911 342.121 192.508 365.739C170.105 389.358 142.579 401.167 109.93 401.167C77.9757 401.167 51.6654 388.924 30.9993 364.437C10.3331 339.95 0 309.472 0 273.002C0 200.063 30.1309 136.327 90.3928 81.7964C150.655 27.2655 226.46 0 317.808 0C415.755 0 495.38 31.6071 556.684 94.8213C617.988 158.035 648.64 240.527 648.64 342.294C648.64 441.978 619.985 526.553 562.676 596.02C505.366 665.486 441.11 700.219 369.907 700.219C345.941 700.219 318.155 690.493 286.548 671.043C255.288 651.245 228.37 641.346 205.793 641.346C176.27 641.346 148.137 660.97 121.392 700.219L108.888 692.404C122.434 658.713 150.394 626.758 192.769 596.541C235.49 566.323 263.971 539.057 278.212 514.744C292.452 490.431 299.573 457.956 299.573 417.318C299.573 397.173 297.836 369.734 294.363 335C290.889 300.267 289.153 275.086 289.153 259.456C289.153 216.387 297.315 181.48 313.64 154.736C329.964 127.991 356.188 106.631 392.31 90.6533L399.083 102.636C361.919 129.033 343.336 165.677 343.336 212.566C343.336 227.849 346.373 255.114 352.446 294.363C358.877 333.264 362.092 363.482 362.092 385.016C362.092 428.78 351.027 467.16 328.895 500.156C306.764 533.153 267.814 567.365 212.045 602.792L237.574 601.75C277.17 601.75 311.729 610.955 341.252 629.363C371.123 647.424 399.257 656.455 425.654 656.455C469.765 656.455 509.621 630.579 545.222 578.827C580.824 527.074 598.625 463.166 598.625 387.1C598.625 287.416 567.278 203.709 504.585 135.98C441.892 68.2505 365.739 34.3857 276.128 34.3857C207.009 34.3857 149.7 54.6178 104.199 95.0818C58.6989 135.546 35.9487 184.606 35.9487 242.263C35.9487 273.87 44.632 299.573 61.9985 319.371C79.3651 339.168 101.247 349.067 127.644 349.067C172.797 349.067 203.536 319.544 219.86 260.498L233.406 263.624"/><path id="shape1" transform="translate(305.04999703933, 1030.59999607938)" fill="#000000" fill-rule="evenodd" d="M537.668 -688.236C525.511 -668.091 506.061 -650.985 479.316 -636.918C452.572 -622.851 426.869 -615.817 402.209 -615.817C377.896 -615.817 343.684 -622.938 299.573 -637.178C255.809 -651.419 227.502 -658.539 214.65 -658.539C190.685 -658.539 170.105 -649.333 152.912 -630.922C135.719 -612.511 127.123 -590.278 127.123 -564.222C127.123 -538.862 135.025 -518.106 150.828 -501.955C166.632 -485.804 186.255 -473.126 209.697 -463.919C233.139 -454.712 269.697 -443.167 319.371 -429.285C369.039 -415.749 408.982 -402.469 439.2 -389.445C469.417 -376.42 495.033 -356.969 516.047 -331.093C537.06 -305.217 547.567 -271.265 547.567 -229.238C547.567 -166.371 521.778 -110.451 470.199 -61.4775C418.62 -12.5039 354.798 11.9829 278.733 11.9829C209.267 11.9829 151.697 -6.25195 106.023 -42.7217C60.3487 -79.1914 37.5117 -122.608 37.5117 -172.971C37.5117 -210.135 50.884 -241.134 77.6284 -265.969C104.373 -290.803 138.932 -303.22 181.307 -303.22C225.765 -303.22 263.364 -290.976 294.102 -266.49C324.841 -242.003 340.21 -212.914 340.21 -179.223C340.21 -156.299 332.309 -137.456 316.505 -122.695C300.702 -107.933 281.685 -100.552 259.456 -100.552C222.639 -100.552 195.2 -117.571 177.139 -151.61L190.164 -158.904C203.362 -145.358 217.95 -138.585 233.927 -138.585C250.946 -138.585 265.1 -144.576 276.388 -156.559C287.677 -168.542 293.321 -183.564 293.321 -201.625C293.321 -224.202 283.856 -243.045 264.927 -258.154C245.997 -273.262 223.16 -280.817 196.416 -280.817C165.156 -280.817 139.193 -269.355 118.527 -246.431C97.8604 -223.507 87.5273 -196.068 87.5273 -164.114C87.5273 -122.087 106.023 -85.9644 143.013 -55.7466C180.004 -25.5288 226.633 -10.4199 282.901 -10.4199C342.989 -10.4199 393.005 -29.2762 432.948 -66.9887C472.891 -104.701 492.862 -148.932 492.862 -199.68C492.862 -234.44 483.577 -262.596 465.005 -284.146C446.434 -305.697 424.217 -321.86 398.354 -332.636C372.492 -343.411 336.452 -355.357 290.236 -368.474C244.013 -381.586 207.964 -393.526 182.088 -404.293C156.212 -415.06 134.504 -430.69 116.964 -451.183C99.4234 -471.675 90.6533 -498.42 90.6533 -531.416C90.6533 -576.569 108.541 -615.383 144.316 -647.859C180.091 -680.334 221.597 -696.572 268.834 -696.572C290.716 -696.572 321.976 -690.841 362.613 -679.379C403.598 -668.264 433.121 -662.707 451.183 -662.707C480.706 -662.707 506.408 -674.343 528.29 -697.614L537.668 -688.236"/>
</svg>
